<?xml version="1.0" standalone="no"?>
<!DOCTYPE svg PUBLIC "-//W3C//DTD SVG 20010904//EN"
 "http://www.w3.org/TR/2001/REC-SVG-20010904/DTD/svg10.dtd">
<svg version="1.0" xmlns="http://www.w3.org/2000/svg"
 width="4346.000000pt" height="2678.000000pt" viewBox="0 0 4346.000000 2678.000000"
 preserveAspectRatio="xMidYMid meet">

<g transform="translate(0.000000,2678.000000) scale(0.100000,-0.100000)"
fill="#000000" stroke="none">
<path d="M9285 25523 c-884 -42 -1723 -212 -2560 -517 -140 -52 -356 -139
-352 -143 2 -1 73 -12 158 -23 440 -59 897 -157 903 -195 0 -5 -15 -11 -34
-13 -92 -9 -837 -293 -1255 -479 -400 -178 -854 -416 -1150 -603 -746 -471
-1308 -971 -2033 -1809 -29 -33 -50 -61 -45 -61 11 0 232 67 533 161 629 198
1003 290 1275 314 l70 6 -25 -21 c-83 -73 -391 -362 -605 -570 -1584 -1535
-2583 -2977 -3065 -4430 -77 -230 -164 -534 -158 -550 2 -5 100 48 218 117
574 333 1126 636 1519 833 124 61 235 116 249 121 l24 9 -19 -32 c-11 -18 -44
-71 -73 -118 -264 -425 -290 -470 -279 -470 6 0 57 13 114 30 141 41 504 131
986 244 364 86 659 160 805 202 47 13 66 13 210 -5 88 -11 209 -25 269 -30 61
-6 130 -13 155 -16 137 -15 533 -24 690 -16 l175 9 30 -36 c192 -234 405 -400
610 -478 123 -46 228 -65 400 -71 231 -8 421 22 611 97 180 72 351 204 425
329 l36 61 129 -133 c381 -392 702 -779 953 -1151 l94 -139 -171 6 c-94 4
-386 10 -649 12 -263 3 -495 8 -515 10 -29 4 -38 1 -42 -12 -2 -10 -15 -52
-27 -93 -88 -304 -144 -663 -158 -1005 -26 -698 92 -1320 336 -1770 108 -200
159 -263 484 -606 l147 -155 -81 -65 c-293 -233 -664 -470 -1080 -691 -300
-160 -813 -396 -828 -381 -14 14 -76 236 -113 400 -80 355 -121 715 -147 1266
l-12 267 -1267 0 -1267 0 79 -212 c116 -310 176 -473 174 -474 0 -1 -309 -52
-686 -114 -377 -61 -686 -113 -686 -113 -1 -1 27 -301 62 -667 35 -366 64
-673 64 -682 0 -14 31 -6 192 48 105 35 194 62 196 59 3 -2 7 -129 9 -282 5
-274 5 -278 28 -298 12 -11 67 -56 121 -101 764 -623 1428 -947 2214 -1084
l105 -18 60 44 c33 24 148 110 255 192 107 81 346 262 530 402 l335 255 900
303 c495 167 1192 402 1550 523 357 120 656 219 663 219 8 0 78 -47 156 -104
605 -443 1150 -783 1841 -1149 247 -130 767 -378 920 -437 16 -6 17 -9 5 -13
-8 -3 -220 -42 -470 -87 -2514 -448 -4692 -911 -6970 -1481 -795 -199 -1386
-351 -1393 -359 -3 -3 416 -250 930 -550 514 -300 942 -550 951 -556 13 -10 5
-14 -43 -23 -353 -70 -728 -193 -965 -318 -359 -189 -573 -439 -620 -725 -62
-386 156 -864 644 -1408 121 -135 322 -332 451 -439 690 -579 1642 -1119 2660
-1509 1676 -641 3561 -877 5820 -727 1502 100 3165 380 4943 831 321 81 853
222 859 227 4 5 -83 92 -177 177 -402 364 -978 740 -1795 1172 -284 151 -1322
655 -1580 768 -22 10 -85 39 -140 65 -149 70 -719 333 -885 408 -1211 545
-2496 995 -3719 1302 -161 41 -295 76 -298 79 -16 16 691 431 1122 658 2041
1078 4631 1888 7445 2327 1557 243 2963 367 4810 422 428 13 1947 6 2360 -10
135 -6 321 -12 413 -15 798 -27 2606 -182 3976 -341 2646 -309 5344 -742 9920
-1595 443 -82 806 -148 808 -146 6 5 21 542 34 1151 31 1510 -21 2600 -177
3680 -258 1798 -850 3590 -1814 5500 -394 779 -766 1401 -1188 1985 -900 1244
-1952 2151 -3137 2703 -906 422 -1827 644 -2904 698 -272 13 -1565 7 -1861
-10 -569 -32 -909 -62 -1285 -111 -970 -129 -1721 -354 -2316 -696 -401 -230
-669 -444 -1209 -963 -129 -125 -279 -267 -333 -316 l-97 -90 5 -215 c13 -503
76 -1174 156 -1645 140 -829 347 -1434 643 -1885 49 -74 91 -142 93 -150 3 -8
55 -50 116 -92 62 -42 227 -156 367 -254 586 -407 1665 -1135 2345 -1580 266
-175 732 -480 885 -579 87 -56 102 -69 85 -75 -11 -4 -789 -235 -1730 -513
-1600 -473 -1730 -510 -2020 -572 -435 -93 -830 -184 -1180 -271 -645 -161
-848 -221 -1676 -498 -222 -74 -500 -162 -617 -196 -874 -249 -2316 -546
-4592 -944 -267 -47 -658 -115 -870 -153 -382 -67 -386 -67 -570 -67 -152 0
-205 4 -297 22 -564 113 -1164 459 -1692 977 -267 262 -464 511 -615 777 -135
237 -199 413 -248 688 -29 162 -32 193 -32 405 -1 247 7 323 54 536 40 180
131 444 166 480 61 64 280 158 579 249 732 222 1927 469 4735 980 1450 264
2319 426 2328 435 4 3 -68 203 -165 455 -84 219 -682 1730 -691 1744 -3 5 -9
1 -14 -10 -7 -17 -8 -16 -4 3 4 23 -85 265 -184 503 -367 879 -818 1672 -1423
2499 -181 248 -432 568 -636 810 -249 296 -620 713 -630 707 -3 -2 -186 -61
-406 -131 -1042 -331 -1561 -505 -2010 -675 -226 -85 -557 -219 -568 -229 -8
-8 82 -116 378 -457 105 -120 194 -225 198 -231 6 -9 -50 -42 -183 -108 -132
-66 -189 -99 -184 -108 4 -6 172 -230 373 -497 201 -267 471 -624 599 -795
128 -170 237 -311 242 -313 4 -2 97 90 206 203 l199 206 35 -39 c55 -60 96
-106 245 -277 299 -342 355 -406 510 -587 88 -104 163 -188 168 -188 10 0 244
181 372 289 101 85 397 355 464 425 l44 45 24 -32 c46 -62 199 -211 256 -248
113 -74 210 -73 289 2 23 21 41 32 44 26 7 -22 55 -232 80 -352 105 -514 216
-1465 173 -1479 -13 -4 -439 -21 -1629 -66 -957 -36 -1582 -51 -2445 -57 -787
-5 -1588 4 -1977 24 l-127 6 41 56 c360 498 594 997 669 1428 53 305 14 647
-97 851 -69 127 -204 291 -487 591 -156 166 -596 601 -837 827 l-24 24 20 27
c123 166 259 402 333 577 162 380 209 755 136 1100 -27 128 -78 270 -146 403
-228 454 -664 834 -1279 1119 -597 276 -1300 437 -2114 484 -160 9 -553 11
-711 3z m920 -298 c1160 -84 1918 -344 2440 -837 309 -292 497 -633 567 -1028
18 -101 17 -451 -1 -550 -36 -203 -91 -384 -170 -560 -51 -114 -138 -280 -148
-280 -8 0 -70 57 -274 251 l-176 168 -28 106 c-15 58 -31 107 -34 110 -4 2
-28 -10 -55 -26 l-48 -30 -48 45 -49 46 112 1 c62 1 103 3 92 5 -11 2 -292 29
-625 59 -333 30 -629 57 -658 60 l-52 6 34 62 c65 117 117 321 115 457 l0 55
-48 -137 c-90 -254 -157 -378 -267 -496 -39 -43 -91 -91 -115 -108 l-44 -32 0
172 c0 188 -13 270 -66 429 -33 99 -96 243 -104 235 -3 -2 6 -76 20 -164 14
-87 30 -218 37 -290 21 -240 -18 -457 -121 -668 l-49 -102 -209 -13 c-944 -56
-1770 -226 -2472 -507 l-186 -75 -129 7 -129 7 6 -65 6 -65 -82 -41 c-122 -62
-339 -184 -537 -303 -96 -58 -219 -130 -272 -160 -54 -30 -98 -57 -98 -60 0
-7 48 -96 613 -1139 189 -349 342 -636 341 -638 -1 -2 -35 6 -76 17 -350 98
-715 69 -1010 -80 -250 -126 -458 -370 -513 -602 -19 -81 -19 -273 0 -374 27
-142 107 -348 179 -461 15 -24 25 -47 21 -50 -9 -10 -522 -4 -640 7 -191 18
-374 44 -369 52 2 4 41 20 87 35 163 54 634 250 625 260 -2 1 -136 -31 -298
-72 -523 -133 -1100 -256 -1630 -348 -338 -59 -658 -108 -672 -104 -12 4 37
66 137 169 216 224 452 387 962 664 544 296 635 349 794 456 149 100 149 100
-231 -50 -1371 -538 -2370 -1011 -3223 -1527 -75 -46 -137 -80 -137 -76 0 4 9
43 19 87 148 612 1062 1894 2660 3730 637 732 1076 1214 1166 1283 87 65 229
136 499 247 116 47 212 88 215 92 4 3 -16 3 -44 -1 -27 -4 -250 -33 -495 -66
-496 -66 -670 -94 -924 -145 -244 -49 -563 -142 -821 -240 -16 -6 -14 -2 6 16
15 13 92 98 172 189 190 215 251 280 371 391 521 481 1244 939 2136 1352 930
430 1345 551 1945 564 241 5 292 3 567 -29 99 -11 132 -9 114 9 -21 21 -1124
251 -1550 323 -158 27 -290 51 -292 53 -3 2 67 23 153 46 639 168 1362 268
2133 295 178 6 674 -5 875 -19z m8282 -1972 c1082 -1210 2112 -2863 2569
-4122 l46 -126 -12 -90 c-25 -187 -88 -307 -233 -441 -119 -110 -219 -154
-352 -154 -79 0 -72 -4 -286 145 l-66 46 -6 107 c-15 251 -72 545 -192 984
-31 111 -78 284 -105 384 l-48 181 24 94 c27 101 58 268 52 275 -2 2 -23 -43
-47 -100 -69 -168 -164 -299 -246 -337 -61 -28 -123 -24 -191 12 -76 39 -138
100 -292 288 -139 169 -178 200 -211 165 -17 -17 -99 -160 -204 -354 -23 -41
-34 -70 -26 -64 7 6 59 46 114 90 174 138 170 136 189 115 16 -17 10 -24 -96
-118 -268 -236 -613 -514 -636 -513 -4 1 -35 35 -68 78 -145 181 -248 305
-447 536 l-79 91 85 80 c46 44 142 134 213 200 270 250 394 389 394 442 0 29
-9 29 -40 1 -14 -13 -84 -75 -155 -138 -72 -63 -132 -117 -135 -120 -6 -6
-291 -255 -376 -327 l-60 -52 -248 281 c-136 154 -246 281 -244 282 2 1 27 22
57 46 30 25 67 54 82 65 61 45 415 327 559 446 177 146 239 202 264 242 18 27
18 27 -3 27 -12 0 -36 -7 -53 -16 -41 -21 -303 -192 -702 -457 -269 -180 -331
-217 -341 -205 -13 14 -320 374 -433 508 -40 47 -72 88 -72 92 0 3 69 48 153
99 991 603 1399 869 1374 895 -12 12 -124 -32 -217 -86 -25 -15 -149 -84 -275
-155 -127 -70 -279 -156 -340 -190 -60 -34 -245 -138 -410 -230 -165 -92 -319
-178 -341 -192 l-42 -24 -132 168 c-73 92 -139 173 -146 178 -28 24 -253 330
-246 337 14 13 359 141 592 220 299 100 642 204 1188 358 l432 123 43 -29 c70
-48 180 -166 213 -229 35 -66 50 -138 63 -296 9 -108 26 -161 59 -178 9 -5 64
-25 122 -46 163 -58 211 -86 264 -152 116 -147 188 -356 203 -590 7 -125 27
-158 68 -116 15 14 16 30 10 112 -20 287 -114 529 -265 681 -59 59 -74 69
-175 107 -60 23 -127 47 -148 55 -22 7 -43 20 -48 29 -5 9 -13 76 -19 148 -8
116 -14 142 -45 213 -41 96 -95 168 -188 253 l-68 62 108 31 c59 17 113 31
119 31 5 1 74 -70 151 -156z m15023 -532 c317 -72 670 -166 670 -179 -1 -4
-78 -59 -173 -122 -311 -208 -566 -406 -957 -744 -662 -572 -1365 -1371 -1985
-2256 -330 -471 -699 -1062 -945 -1515 -121 -223 -201 -376 -291 -557 -57
-115 -106 -208 -110 -208 -10 0 -217 177 -414 356 -917 830 -1332 1507 -1405
2294 -26 271 5 629 81 960 11 47 21 96 23 110 11 86 150 510 252 769 68 172
228 539 273 626 25 48 29 50 101 73 383 120 1071 257 1640 327 779 95 1376
125 2375 120 l640 -3 225 -51z m-22004 -57 l331 -7 122 -115 c101 -95 120
-117 109 -128 -12 -12 -304 -200 -407 -263 -89 -53 -533 -338 -743 -477 -204
-134 -218 -142 -229 -123 -16 31 -64 22 -64 -11 1 -15 127 -231 315 -535 172
-280 348 -566 390 -635 97 -159 150 -240 154 -240 5 0 498 290 511 300 7 6 9
-90 7 -284 -3 -261 -1 -294 13 -306 12 -10 21 -11 33 -3 15 9 18 43 22 288 l5
277 73 19 c254 64 513 260 632 478 74 134 108 330 80 452 -50 218 -241 404
-525 510 l-59 22 125 63 c68 35 130 63 137 63 7 1 122 -97 255 -216 677 -606
1007 -947 1200 -1240 82 -125 126 -214 165 -333 127 -389 100 -805 -80 -1239
-236 -567 -643 -1099 -1517 -1983 l-323 -328 -1214 7 c-668 3 -1214 3 -1214 0
0 -29 185 -69 425 -92 94 -9 185 -18 203 -21 l32 -5 -6 -72 c-12 -141 -50
-255 -109 -325 -52 -62 -157 -117 -270 -141 -63 -13 -311 -38 -475 -46 l-125
-7 -60 93 c-125 195 -299 420 -503 652 -160 181 -473 507 -630 656 l-142 135
6 55 6 56 -36 -38 c-20 -21 -36 -42 -36 -46 0 -10 -140 -145 -200 -193 -88
-71 -258 -158 -391 -202 -128 -42 -348 -58 -475 -35 -299 53 -593 212 -779
420 -80 89 -110 136 -165 252 -69 149 -85 223 -85 397 0 199 28 317 113 470
44 79 167 204 240 243 227 119 525 141 1064 76 95 -11 198 -23 228 -25 l55 -6
-25 21 c-14 11 -68 42 -122 68 -106 53 -87 31 -196 233 -46 86 -482 916 -657
1250 -65 124 -133 253 -151 287 -19 34 -34 65 -34 68 0 5 241 165 365 243 150
93 454 257 462 248 3 -3 14 -85 25 -183 11 -98 22 -180 24 -183 3 -2 199 6
435 19 237 12 432 21 434 19 2 -2 -19 -39 -46 -83 -206 -334 -162 -689 122
-965 125 -122 288 -208 469 -247 130 -28 457 -25 599 6 344 73 652 242 803
441 61 80 114 186 133 265 46 194 -28 501 -150 615 -18 17 -22 26 -13 31 9 6
9 59 -1 235 -6 126 -13 230 -15 231 -2 2 -513 12 -1137 23 -624 11 -1136 20
-1139 20 -25 5 425 154 640 213 511 141 1222 250 1830 282 63 3 125 8 137 11
25 5 86 90 141 200 33 65 53 89 110 137 38 32 107 97 153 145 93 96 109 103
224 96 33 -2 209 -6 391 -10z m23029 -228 c1181 -398 2131 -938 3005 -1710
194 -172 540 -522 721 -731 159 -182 309 -365 309 -376 0 -3 -44 -30 -97 -59
-299 -163 -776 -444 -1072 -630 -103 -64 -194 -119 -205 -123 -29 -11 -428
-274 -676 -445 -955 -661 -1749 -1318 -2460 -2038 -349 -353 -589 -621 -851
-949 -114 -142 -285 -371 -355 -472 -27 -40 -54 -71 -60 -69 -10 4 -856 610
-1019 731 -38 28 -173 127 -300 220 -698 512 -1600 1204 -1654 1269 -10 11 7
53 90 218 640 1279 1438 2462 2333 3458 243 271 806 824 1046 1027 359 305
969 743 1035 743 11 0 106 -29 210 -64z m-22157 -68 l39 -123 -26 -16 c-14 -9
-366 -202 -781 -429 -415 -227 -760 -416 -766 -421 -7 -5 -25 13 -52 52 -23
33 -42 64 -42 67 1 7 1570 990 1582 991 4 1 25 -54 46 -121z m15960 -250
c-254 -560 -447 -1131 -518 -1528 -48 -268 -63 -492 -50 -730 26 -457 149
-842 400 -1257 238 -392 557 -754 1110 -1259 365 -332 1234 -1017 1986 -1564
34 -25 169 -124 300 -220 343 -250 486 -353 1274 -920 1618 -1162 1913 -1377
2696 -1964 1307 -981 2410 -1884 3329 -2725 527 -482 1334 -1284 1585 -1574
32 -36 32 -38 9 -33 -13 4 -296 51 -628 107 -631 104 -632 105 -678 162 -27
34 -352 346 -573 550 -259 240 -290 268 -395 362 -49 44 -117 104 -150 134
-33 30 -76 68 -95 85 -20 17 -74 65 -120 107 -47 41 -170 149 -275 238 -104
90 -201 173 -215 185 -52 45 -466 392 -496 416 -17 14 -128 104 -245 201 -723
593 -1686 1336 -2569 1979 -63 46 -146 107 -185 135 -254 187 -1188 846 -1488
1050 -65 44 -159 109 -210 144 -450 313 -1546 1036 -2290 1510 -48 31 -111 71
-140 90 -471 305 -2374 1466 -2674 1632 -69 38 -53 12 -190 314 -309 681 -500
1401 -584 2201 -31 297 -36 367 -49 622 l-12 233 48 62 c377 487 893 868 1597
1181 162 72 509 203 544 205 6 1 -16 -59 -49 -131z m-16056 -304 c357 -129
547 -353 524 -621 -26 -318 -341 -636 -708 -717 -27 -6 -28 -5 -28 35 0 22 -4
39 -9 37 -5 -1 -131 -77 -280 -167 -170 -103 -275 -161 -281 -155 -5 5 -139
221 -299 479 -250 407 -287 472 -273 482 8 7 204 109 436 227 232 118 511 262
621 320 110 58 205 106 212 106 6 0 45 -12 85 -26z m4175 -381 c154 -175 371
-419 481 -543 l200 -224 -102 -119 c-55 -65 -109 -129 -118 -140 -9 -12 -18
-20 -21 -17 -23 29 -868 1242 -872 1252 -3 8 22 31 68 60 39 26 74 48 77 48 3
0 132 -143 287 -317z m-7479 53 c601 -7 1094 -15 1096 -17 2 -2 6 -36 10 -76
l7 -71 -83 -6 c-123 -8 -2544 -40 -2561 -33 -9 3 -16 28 -21 74 -4 37 -9 85
-13 106 l-6 37 239 -1 c132 0 731 -6 1332 -13z m1081 -420 c82 -44 160 -155
193 -280 26 -93 35 -266 18 -337 -46 -199 -243 -403 -515 -534 -241 -115 -536
-170 -793 -147 -70 6 -156 19 -192 28 -86 22 -217 83 -293 138 -79 56 -192
176 -236 249 -145 245 -119 535 69 789 l42 57 72 5 c270 22 1240 55 1506 51
70 -1 104 -6 129 -19z m28681 -1666 c124 -168 415 -608 533 -805 261 -439 528
-964 747 -1472 79 -182 142 -373 354 -1073 119 -395 196 -657 196 -668 0 -5
-17 -16 -37 -25 -1037 -446 -1806 -851 -2773 -1460 -442 -278 -1130 -756
-1430 -993 -30 -24 -108 -85 -173 -136 -66 -51 -148 -117 -185 -145 -36 -29
-69 -53 -74 -53 -5 0 -160 114 -346 253 -347 261 -767 571 -1092 807 -102 73
-216 157 -255 185 -67 50 -714 516 -1123 809 -120 86 -190 142 -185 149 73
126 436 592 683 877 294 340 720 776 1065 1090 99 91 182 167 185 170 19 21
439 374 590 496 180 146 531 419 617 479 23 17 110 80 194 140 229 166 344
245 684 471 171 113 321 214 335 224 199 146 1374 831 1391 812 4 -4 48 -63
99 -132z m-17232 -1435 c170 -451 312 -830 316 -841 6 -20 1 -23 -90 -39 -53
-9 -99 -13 -103 -9 -4 5 -130 344 -280 754 l-272 746 50 104 c28 58 51 112 51
120 1 13 2 13 9 0 5 -8 148 -384 319 -835z m-4118 -171 c-319 -118 -961 -223
-2205 -359 -1382 -151 -1498 -164 -1884 -216 -122 -17 -225 -29 -227 -27 -1 2
45 56 104 119 164 176 248 271 345 390 l89 109 1507 1 c828 1 1655 5 1836 8
182 4 375 8 430 8 l100 2 -95 -35z m-5011 -1409 c-176 -849 -356 -1373 -595
-1727 -260 -386 -585 -601 -1028 -681 -103 -18 -158 -21 -366 -21 -216 -1
-257 2 -342 21 -575 130 -908 510 -1239 1413 -27 74 -54 144 -59 155 -21 44
-80 218 -75 223 3 3 161 11 351 19 328 12 347 12 360 -4 8 -10 49 -70 91 -133
162 -241 460 -660 469 -660 3 0 -3 17 -12 38 -8 20 -29 73 -46 117 -17 44
-106 229 -199 412 l-167 332 31 6 c18 3 138 12 267 20 318 20 418 43 537 122
124 82 193 226 210 439 6 83 6 83 32 79 54 -9 994 -48 1466 -61 l250 -7 50 46
c28 25 51 44 52 44 0 -1 -17 -87 -38 -192z m-3756 -719 c15 -52 28 -107 29
-123 1 -15 -11 -84 -25 -153 -134 -634 47 -1326 536 -2059 234 -351 497 -661
878 -1036 552 -543 1177 -1038 2007 -1590 122 -81 222 -148 222 -150 0 -1 -15
-49 -34 -106 -19 -57 -40 -139 -47 -181 -7 -43 -16 -78 -21 -78 -17 0 -603
359 -898 550 -1051 680 -1894 1361 -2525 2040 -194 208 -303 336 -362 424
-162 240 -257 549 -294 950 -15 162 -6 681 15 891 31 311 70 646 77 656 4 8
234 40 405 58 5 1 23 -41 37 -93z m32001 -461 c9 -33 53 -188 97 -345 237
-841 468 -1772 613 -2465 73 -351 80 -395 70 -405 -15 -15 -803 -310 -827
-310 -32 0 -891 -331 -1142 -440 -66 -29 -151 -66 -190 -82 -242 -104 -743
-368 -904 -477 l-58 -40 -169 145 c-348 299 -1259 1044 -1465 1199 -15 11
-163 126 -330 255 -166 129 -309 240 -316 245 -15 11 58 74 317 274 582 449
1139 830 1835 1256 155 95 203 123 480 283 202 117 511 285 725 395 107 55
206 107 220 115 123 78 1008 480 1021 464 3 -4 14 -34 23 -67z m-26544 48 c0
-5 -11 -42 -24 -83 -127 -399 -145 -876 -49 -1334 74 -357 363 -927 691 -1361
128 -169 219 -274 388 -443 89 -90 157 -165 150 -167 -6 -2 -81 -7 -166 -12
l-154 -8 -111 93 c-137 117 -352 327 -459 452 -632 731 -894 1637 -775 2677
l12 101 226 45 c237 47 271 52 271 40z m16920 -1238 c331 -350 1710 -1787
1807 -1885 53 -52 91 -88 87 -79 -12 20 -142 192 -883 1162 -336 438 -608 797
-606 797 3 0 169 -107 443 -285 84 -55 244 -159 355 -232 778 -507 1658 -1093
2197 -1463 342 -235 1101 -768 1245 -875 39 -28 131 -97 205 -151 378 -280
480 -355 646 -481 342 -260 681 -526 914 -718 189 -155 488 -402 515 -426 17
-14 82 -70 145 -125 124 -106 512 -445 520 -454 3 -3 49 -45 104 -94 79 -71
93 -87 70 -82 -60 13 -1459 231 -1809 282 -3764 551 -6454 850 -9870 1098
l-330 24 -135 45 c-602 201 -1013 415 -1254 652 -127 126 -190 225 -227 362
-71 259 69 609 400 998 140 164 412 432 606 596 50 42 107 92 127 112 39 37
309 242 417 318 l64 44 2011 527 c1106 289 2020 527 2031 527 14 1 80 -62 205
-194z m-4716 -963 c-16 -15 -95 -84 -175 -154 -79 -70 -169 -150 -199 -177
l-55 -49 -430 -121 c-236 -66 -524 -147 -640 -180 -1316 -375 -2702 -740
-3545 -935 -2109 -486 -3579 -647 -4520 -496 -215 35 -345 70 -522 140 -92 36
-255 119 -235 120 4 0 66 16 139 35 l132 35 110 -36 c256 -81 558 -121 836
-111 282 11 1429 155 2250 283 1649 257 2915 542 4540 1021 140 41 291 85 335
98 44 13 217 64 385 113 637 188 1563 441 1615 441 6 0 -4 -12 -21 -27z
m-20094 -319 c0 -370 72 -753 285 -1513 42 -151 81 -279 85 -283 4 -5 41 7 81
26 41 19 193 87 339 152 706 313 1185 580 1593 888 l119 90 32 -34 c18 -19
113 -119 212 -224 98 -104 279 -293 401 -419 123 -126 221 -231 219 -233 -10
-11 -1763 -591 -2420 -802 l-219 -70 -71 52 c-39 29 -145 107 -236 172 -91 65
-192 138 -224 162 -115 85 -413 281 -551 363 -77 45 -141 84 -143 85 -2 2 38
30 88 64 95 63 310 231 310 242 0 3 -64 59 -142 125 -79 65 -156 131 -173 145
-49 43 -305 260 -370 314 -33 28 -62 52 -65 56 -7 8 -382 321 -405 339 -34 26
277 -311 725 -785 47 -49 98 -104 114 -122 l29 -32 -29 -34 c-42 -50 -132
-121 -205 -161 -144 -78 -307 -109 -564 -107 -257 2 -225 -19 -306 211 -136
384 -465 1292 -534 1472 -8 20 46 21 1333 26 l692 2 0 -167z m-1922 -639 c33
-87 64 -175 70 -194 5 -19 37 -109 71 -199 34 -90 60 -165 58 -167 -2 -2 -308
-112 -681 -244 -372 -131 -680 -241 -685 -244 -4 -3 -15 81 -24 187 -44 518
-68 839 -63 845 4 3 271 49 594 102 420 69 589 93 594 85 4 -6 34 -83 66 -171z
m37215 -478 c112 -649 202 -1391 219 -1810 l3 -68 -300 -124 c-165 -68 -331
-136 -370 -150 -38 -15 -138 -53 -221 -85 -284 -110 -509 -190 -684 -243
l-175 -53 -280 276 c-235 231 -444 429 -760 720 -112 104 -334 302 -465 416
-30 26 -61 53 -68 60 -12 10 -6 18 30 43 160 110 605 342 933 486 335 148 694
288 1590 621 182 67 366 136 410 153 44 17 82 31 85 31 3 1 27 -122 53 -273z
m-26015 81 c178 -133 290 -203 488 -302 l161 -81 -146 -38 c-1040 -268 -1835
-676 -2215 -1136 -63 -77 -70 -86 -133 -180 -63 -96 -147 -296 -183 -437 -6
-24 -15 -43 -19 -43 -11 0 -469 255 -882 491 l-296 169 8 57 c33 239 157 499
334 700 362 413 1012 691 1920 822 187 27 499 60 665 70 74 4 141 9 148 10 7
0 75 -45 150 -102z m-10874 -473 c31 -83 56 -158 56 -166 0 -9 10 -18 23 -21
30 -8 263 -27 360 -30 l78 -2 -287 -315 c-299 -328 -453 -496 -565 -614 l-66
-69 -121 82 c-67 45 -217 154 -334 241 -117 87 -228 169 -245 182 l-32 23 -1
252 0 252 478 156 c262 86 502 164 532 174 30 10 58 16 61 12 3 -3 32 -74 63
-157z m1030 -201 c50 -31 93 -60 96 -64 3 -4 97 -64 210 -134 113 -71 206
-129 206 -129 1 -1 -43 -48 -98 -106 -261 -276 -779 -864 -915 -1039 -16 -21
-577 236 -781 357 l-93 55 63 66 c34 36 96 102 138 146 42 44 170 184 285 310
184 203 284 313 445 487 42 45 50 50 110 58 36 5 97 18 135 28 39 11 79 20 89
21 10 0 60 -25 110 -56z m674 -435 c192 -126 499 -360 509 -387 1 -3 -69 -59
-155 -123 -86 -65 -323 -243 -526 -396 l-368 -279 -122 19 c-113 17 -397 82
-422 96 -8 5 24 50 85 122 118 142 399 467 461 535 26 28 78 84 115 125 213
232 329 349 339 343 6 -4 44 -28 84 -55z m35416 -980 c10 -38 7 -821 -4 -998
-10 -155 -38 -472 -43 -476 -2 -2 -105 16 -769 134 l-208 37 -76 85 c-102 112
-354 380 -476 505 l-98 100 38 12 c20 6 89 28 152 48 202 63 713 253 766 284
22 13 696 290 705 291 4 0 9 -10 13 -22z m-29555 -572 c-8 -8 -452 -138 -759
-221 -392 -106 -1143 -293 -2050 -510 -1873 -448 -2579 -639 -3182 -863 -98
-36 -178 -68 -178 -71 1 -3 20 -18 43 -32 23 -15 220 -139 437 -276 217 -137
492 -310 612 -384 129 -80 211 -137 205 -141 -7 -4 -36 -8 -66 -8 -89 0 -618
-50 -687 -65 -15 -3 -262 137 -811 458 l-791 464 67 22 c1352 457 2864 819
5601 1340 1497 285 1571 299 1559 287z m-2689 -2810 c252 -21 360 -33 530 -57
1040 -145 2299 -494 3690 -1022 396 -151 1183 -468 1176 -474 -4 -5 -326 84
-1036 287 -2158 616 -3284 863 -4400 967 -263 24 -888 24 -1125 0 -351 -36
-597 -78 -877 -147 -695 -174 -1187 -459 -1436 -833 -38 -57 -103 -208 -127
-292 -26 -92 -31 -309 -11 -418 60 -318 257 -643 610 -1005 106 -109 107 -110
-174 71 -452 290 -773 539 -1030 796 -373 374 -546 708 -527 1016 15 245 151
443 424 622 389 254 1133 430 2063 488 360 22 347 22 1240 20 658 -2 863 -6
1010 -19z m-200 -397 c283 -17 576 -50 930 -105 179 -28 600 -103 609 -109 18
-10 -63 -1228 -154 -2315 -13 -162 -27 -338 -30 -390 -10 -179 -111 -1279
-117 -1285 -5 -5 -437 91 -648 143 -274 68 -624 169 -850 245 l-185 62 -42
265 c-53 340 -163 1087 -198 1345 -15 110 -46 345 -70 522 -62 453 -119 919
-155 1253 -16 157 -32 302 -35 322 l-5 37 52 6 c171 21 584 23 898 4z m-1036
-91 c46 -485 241 -2036 276 -2188 6 -25 35 -214 66 -420 30 -206 77 -518 105
-693 28 -176 48 -321 46 -324 -14 -14 -562 202 -939 370 -194 87 -667 325
-743 374 -107 70 -306 243 -486 422 -256 255 -390 432 -499 656 -194 397 -164
734 92 1049 276 338 822 603 1536 745 202 41 429 76 513 80 26 1 27 -1 33 -71z
m3047 -223 c356 -79 696 -160 924 -220 77 -20 226 -59 330 -86 105 -28 255
-68 335 -90 80 -22 179 -49 220 -61 41 -11 76 -21 77 -22 1 -1 -6 -38 -16 -82
-54 -224 -145 -733 -196 -1089 -89 -629 -149 -1232 -210 -2095 -8 -118 -17
-234 -19 -257 l-4 -43 44 0 c24 0 44 2 44 5 0 27 54 727 65 840 106 1102 217
1908 345 2504 22 102 41 186 43 187 2 2 248 -66 548 -151 983 -281 1316 -371
1608 -435 90 -20 207 -68 496 -205 61 -28 162 -76 225 -105 104 -49 1039 -516
1046 -522 1 -2 -11 -80 -27 -173 -59 -344 -151 -976 -165 -1140 -7 -91 -41
-355 -46 -360 -4 -4 -422 -75 -768 -129 -535 -84 -1196 -173 -1207 -163 -13
13 59 316 286 1202 182 713 351 1428 351 1489 0 14 -76 34 -87 23 -2 -3 -22
-86 -43 -184 -67 -310 -146 -641 -299 -1248 -124 -492 -266 -1093 -299 -1260
l-8 -40 -154 -17 c-809 -90 -1487 -131 -2185 -132 -581 0 -949 19 -1415 74
-215 26 -503 71 -513 80 -5 4 10 210 32 456 22 247 47 530 56 629 8 99 17 190
20 201 23 103 195 2456 195 2667 0 20 5 27 19 27 10 0 169 -34 352 -75z m6086
-2023 c37 -22 118 -65 178 -97 111 -58 136 -72 300 -162 50 -27 121 -66 158
-87 37 -20 84 -46 105 -57 20 -12 60 -33 87 -49 192 -106 733 -413 1032 -586
56 -32 99 -61 97 -64 -23 -23 -2264 -473 -2280 -458 -12 13 204 1485 232 1581
7 24 13 22 91 -21z"/>
<path d="M10453 19489 c-615 -47 -1061 -289 -1261 -684 -92 -182 -117 -307
-117 -580 0 -222 6 -272 55 -480 46 -189 132 -445 151 -445 4 0 34 12 66 26
116 52 452 187 623 250 96 36 198 73 225 84 139 52 506 177 970 330 548 180
1208 401 1228 412 21 11 23 54 3 61 -8 3 -160 -43 -338 -103 -178 -59 -324
-107 -326 -105 -2 2 -20 121 -42 265 -21 144 -40 263 -41 264 -2 2 -53 -10
-112 -26 -59 -17 -110 -28 -113 -26 -2 3 -20 137 -39 299 -19 162 -37 302 -39
312 -6 23 6 22 159 -13 259 -60 520 -153 753 -267 129 -63 156 -70 168 -38 10
24 -9 38 -128 98 -556 274 -1249 412 -1845 366z m667 -83 c63 -9 127 -19 141
-22 l26 -5 32 -267 c52 -437 50 -402 32 -411 -9 -4 -333 -97 -720 -207 -423
-119 -705 -204 -709 -212 -16 -43 22 -34 840 198 453 128 828 235 833 237 8 3
74 -393 79 -475 1 -9 -217 -86 -639 -226 -833 -278 -1304 -450 -1631 -595 -64
-29 -91 -37 -96 -28 -12 19 -84 243 -107 334 -178 698 -6 1219 491 1491 195
106 412 167 738 206 85 10 580 -3 690 -18z"/>
<path d="M6661 18470 c-70 -10 -85 -18 -79 -46 3 -18 17 -19 208 -20 226 0
334 -16 501 -73 215 -73 430 -205 531 -326 42 -50 48 -74 37 -156 -35 -283
-309 -390 -725 -284 -172 44 -358 153 -340 200 3 9 23 24 43 33 33 15 75 17
308 17 l270 0 0 24 c0 35 -29 40 -245 48 -276 9 -401 -17 -436 -90 -22 -47
-13 -79 39 -130 80 -80 269 -160 454 -192 109 -19 280 -19 361 0 217 51 341
206 342 426 0 77 -24 122 -111 205 -184 175 -478 309 -774 353 -103 15 -311
21 -384 11z"/>
<path d="M11716 21160 c-41 -13 -85 -58 -98 -101 -23 -77 58 -169 148 -169 79
1 154 68 154 140 0 91 -108 160 -204 130z"/>
<path d="M9769 20681 c-73 -24 -115 -84 -106 -153 22 -168 309 -152 309 17 0
92 -110 166 -203 136z"/>
</g>
</svg>
