<?xml version="1.0" standalone="no"?>
<!DOCTYPE svg PUBLIC "-//W3C//DTD SVG 20010904//EN"
 "http://www.w3.org/TR/2001/REC-SVG-20010904/DTD/svg10.dtd">
<svg version="1.0" xmlns="http://www.w3.org/2000/svg"
 width="3230.000000pt" height="3716.000000pt" viewBox="0 0 3230.000000 3716.000000"
 preserveAspectRatio="xMidYMid meet">

<g transform="translate(0.000000,3716.000000) scale(0.100000,-0.100000)"
fill="#000000" stroke="none">
<path d="M17458 35633 c49 -65 117 -160 152 -212 35 -52 107 -154 161 -227
205 -277 419 -621 644 -1038 67 -125 372 -739 420 -846 26 -58 59 -130 75
-160 15 -30 47 -109 70 -175 24 -66 53 -141 66 -166 13 -26 39 -87 58 -135 34
-90 107 -273 121 -308 11 -25 2 -21 -91 47 -171 126 -763 501 -898 569 -34 17
-79 43 -101 58 -61 41 -262 149 -450 242 -94 46 -201 103 -240 125 -38 23
-110 60 -160 82 -49 22 -160 75 -245 119 -85 43 -184 91 -220 107 -36 16 -121
55 -190 88 -118 56 -360 163 -480 212 -30 13 -138 57 -240 100 -436 181 -534
219 -753 289 -128 40 -335 101 -462 135 -126 34 -291 79 -365 101 -571 168
-1229 290 -1970 365 -80 8 -179 19 -220 25 -41 5 -136 9 -210 9 -74 -1 -229 5
-345 13 -130 8 -402 13 -715 13 -762 0 -1110 -29 -1705 -140 -112 -21 -625
-151 -845 -214 -41 -12 -106 -31 -145 -41 -230 -65 -625 -196 -810 -270 -43
-17 -156 -67 -250 -110 -93 -42 -181 -81 -195 -85 -60 -18 -370 -179 -655
-340 -60 -34 -149 -83 -197 -109 -83 -44 -649 -418 -803 -530 -217 -157 -693
-600 -986 -916 -143 -155 -400 -454 -459 -535 -24 -33 -80 -105 -125 -161
-145 -182 -282 -383 -409 -604 -43 -74 -113 -191 -156 -260 -147 -238 -248
-416 -334 -587 -47 -94 -86 -174 -86 -177 0 -3 -21 -47 -46 -98 -49 -101 -97
-212 -236 -553 -49 -121 -109 -265 -132 -320 -41 -94 -84 -221 -219 -645 -160
-501 -202 -663 -301 -1170 -74 -381 -91 -483 -125 -770 -17 -135 -35 -276 -40
-315 -6 -38 -11 -148 -11 -242 l0 -173 57 44 c32 23 97 70 144 102 87 60 104
72 374 270 234 171 546 383 685 464 41 24 152 89 245 145 160 96 431 241 645
346 548 268 846 394 1185 502 44 14 132 47 195 72 63 26 165 63 225 82 61 20
178 59 260 88 243 86 670 222 815 260 74 20 241 60 370 89 129 30 282 66 340
79 199 48 245 59 390 94 180 42 393 88 526 113 55 10 130 26 166 34 36 8 130
25 209 36 79 12 185 28 234 35 359 55 463 68 725 95 546 55 976 73 1565 67
351 -3 473 -8 554 -21 58 -9 106 -18 108 -20 4 -4 -164 -124 -387 -276 -214
-145 -310 -216 -445 -330 -48 -41 -104 -88 -124 -105 -139 -115 -345 -307
-581 -541 -295 -292 -402 -404 -520 -544 -175 -207 -398 -476 -443 -534 -54
-68 -298 -434 -342 -511 -16 -27 -45 -75 -66 -105 -114 -170 -204 -327 -265
-460 -28 -63 -99 -209 -158 -324 -58 -115 -136 -284 -172 -375 -36 -91 -94
-238 -130 -326 -104 -261 -267 -715 -309 -860 -83 -284 -156 -597 -195 -830
-95 -575 -110 -771 -110 -1430 0 -427 6 -562 36 -850 27 -264 86 -699 103
-762 10 -35 46 -196 122 -538 28 -126 100 -396 148 -558 44 -147 73 -229 171
-482 34 -88 76 -200 95 -250 93 -254 260 -631 323 -729 14 -23 56 -95 92 -161
37 -66 104 -181 150 -255 46 -74 111 -180 145 -235 166 -271 581 -874 717
-1044 21 -25 123 -158 227 -296 104 -137 208 -274 231 -304 78 -103 194 -246
239 -296 25 -28 107 -123 181 -210 106 -125 224 -256 309 -340 8 -9 -93 24
-439 140 -201 68 -468 154 -595 191 -266 77 -365 108 -525 159 -63 20 -200 61
-305 91 -104 30 -245 70 -311 90 -67 19 -218 59 -335 89 -303 77 -614 160
-684 183 -129 43 -259 94 -285 112 -43 30 -60 129 -60 340 0 191 16 313 70
545 17 72 50 216 75 321 65 280 69 314 70 564 l0 225 -36 82 c-20 44 -54 107
-74 138 -50 75 -178 184 -268 229 -122 60 -180 71 -372 71 l-170 0 -105 -52
c-140 -69 -213 -135 -269 -243 -77 -148 -103 -247 -141 -543 -23 -183 -26
-430 -6 -682 7 -88 11 -161 11 -162 -1 -2 -42 11 -91 27 -274 94 -686 196
-964 241 -190 31 -369 41 -655 36 -296 -4 -317 -8 -480 -85 -176 -83 -279
-172 -342 -297 -52 -102 -63 -150 -63 -281 0 -139 7 -168 75 -309 76 -159 223
-303 362 -355 75 -28 221 -47 428 -54 167 -7 224 -3 500 30 220 26 665 21 665
-7 0 -17 -160 -89 -377 -170 -297 -111 -431 -173 -567 -263 -269 -176 -444
-398 -521 -661 -24 -81 -27 -107 -28 -265 -1 -167 0 -179 27 -255 40 -115 80
-181 160 -260 116 -115 201 -146 441 -160 126 -8 213 9 338 66 159 73 299 179
413 314 99 116 228 276 282 348 128 171 279 314 304 289 16 -16 -16 -100 -101
-267 -96 -191 -120 -250 -165 -405 -55 -192 -67 -262 -73 -430 -7 -197 8 -284
75 -420 72 -150 198 -265 340 -312 88 -29 262 -25 360 8 168 56 287 156 359
304 71 145 75 169 84 585 7 335 10 383 33 510 14 77 33 163 42 190 27 84 67
166 78 162 123 -41 516 -166 731 -232 553 -169 612 -188 790 -247 99 -33 333
-113 520 -178 187 -64 430 -145 540 -180 110 -34 256 -79 325 -101 69 -21 186
-54 260 -74 184 -48 232 -65 227 -79 -2 -6 -50 -180 -107 -386 -118 -435 -217
-784 -289 -1024 -28 -93 -49 -172 -46 -174 11 -12 623 -56 1940 -142 1647
-106 1570 -101 1587 -111 15 -10 -37 -123 -124 -270 -32 -53 -58 -99 -58 -102
0 -12 -321 -616 -582 -1092 -21 -38 -61 -115 -89 -170 -87 -169 -216 -401
-272 -488 -29 -45 -97 -156 -151 -246 -173 -292 -204 -333 -571 -765 -33 -39
-86 -102 -117 -141 -81 -101 -528 -559 -775 -794 -116 -110 -220 -211 -230
-224 -36 -42 -318 -313 -448 -429 -129 -115 -306 -262 -460 -380 -44 -34 -119
-94 -166 -133 -48 -40 -108 -87 -135 -105 -27 -18 -74 -56 -104 -85 -30 -29
-89 -78 -130 -110 l-75 -57 -6 288 c-7 280 -11 332 -44 527 -51 293 -155 543
-298 712 -180 213 -307 281 -543 292 -99 5 -131 2 -175 -12 -217 -71 -365
-250 -477 -580 -54 -157 -64 -233 -69 -546 -5 -275 -4 -291 21 -425 35 -191
80 -343 181 -616 47 -128 111 -300 142 -383 70 -190 71 -193 163 -355 43 -74
89 -159 104 -188 15 -30 44 -73 65 -95 21 -23 66 -85 99 -137 102 -159 110
-168 153 -191 30 -15 52 -19 78 -15 20 3 66 9 102 14 37 5 71 12 78 16 47 29
366 100 566 126 50 6 149 20 220 30 298 44 408 51 832 57 298 4 454 3 530 -6
59 -6 151 -17 203 -22 123 -14 387 -52 570 -84 80 -14 157 -25 172 -25 23 0
127 -26 413 -105 509 -140 788 -243 1465 -542 118 -53 221 -98 230 -100 14 -5
85 -36 330 -143 198 -87 697 -359 761 -416 21 -18 79 -60 130 -95 299 -200
566 -418 969 -790 69 -64 186 -171 260 -239 355 -323 450 -412 450 -419 0 -4
44 -45 98 -90 53 -46 133 -118 177 -160 44 -43 98 -91 120 -106 22 -16 57 -44
78 -61 35 -29 42 -31 73 -22 71 19 253 97 404 173 245 123 360 207 597 438
124 121 180 185 228 257 116 175 247 441 349 705 46 121 69 201 111 380 32
138 35 162 35 310 0 175 -9 224 -58 329 -37 79 -94 156 -159 217 -96 90 -185
119 -385 126 -164 6 -196 -1 -338 -72 -229 -116 -408 -307 -585 -625 -32 -58
-77 -139 -100 -180 -23 -41 -59 -108 -81 -149 l-38 -75 -58 120 c-114 237
-164 377 -248 689 -21 77 -54 196 -75 264 -20 68 -47 178 -60 245 -26 134 -42
204 -116 503 -35 144 -48 214 -44 240 4 21 -5 113 -20 207 -14 93 -38 286 -52
430 -25 245 -27 294 -29 806 -1 613 8 849 47 1155 16 132 38 323 49 440 26
269 42 396 60 472 11 45 24 121 30 170 17 141 40 256 116 573 75 315 207 668
380 1014 74 147 231 396 296 467 l33 37 1563 -640 c860 -352 1565 -638 1567
-636 5 4 32 257 40 363 13 184 213 2146 219 2153 4 3 211 10 459 14 625 9
1318 25 1722 39 367 13 700 2 840 -27 84 -17 125 -53 125 -108 0 -46 -44 -195
-77 -259 -79 -155 -232 -501 -279 -632 -90 -249 -126 -386 -132 -500 -4 -95
-3 -106 32 -208 20 -60 48 -129 62 -153 92 -157 292 -251 514 -242 83 4 109
10 205 48 194 75 341 192 412 325 28 54 93 221 122 315 32 106 61 299 71 475
26 449 27 464 44 490 13 20 25 25 55 25 34 0 45 -6 80 -46 79 -90 146 -222
274 -544 231 -579 330 -778 457 -914 116 -125 252 -209 440 -272 76 -25 100
-28 220 -28 128 -1 138 1 195 27 163 76 282 229 314 402 23 123 9 368 -29 517
-26 102 -84 256 -124 326 -39 71 -317 446 -513 692 -46 58 -166 191 -266 295
-213 222 -237 251 -237 293 0 29 21 62 40 62 5 0 45 -13 88 -29 84 -30 194
-86 382 -192 63 -36 162 -89 220 -119 58 -29 209 -107 335 -173 537 -281 643
-315 1010 -324 242 -6 287 1 418 69 129 67 218 173 275 326 20 55 25 86 26
177 l1 110 -57 115 c-96 195 -207 310 -444 457 -152 95 -239 134 -463 203 -69
21 -184 57 -255 80 -71 22 -161 45 -200 51 -39 5 -123 18 -186 29 -82 14 -208
22 -435 29 -320 11 -623 38 -700 63 -39 13 -40 14 -43 63 -3 47 1 56 65 150
38 55 111 154 164 220 81 102 220 305 296 435 29 50 71 182 88 280 18 100 20
375 5 499 -23 182 -101 362 -200 462 -104 105 -208 149 -354 149 -166 -1 -289
-44 -384 -135 -64 -62 -174 -219 -218 -315 -55 -117 -139 -333 -206 -530 -94
-279 -236 -629 -316 -780 -50 -93 -82 -140 -127 -185 -67 -68 -164 -120 -251
-136 -116 -21 -412 -31 -1244 -39 -2352 -23 -2841 -29 -3315 -46 -273 -10
-1065 -17 -1065 -9 0 19 107 141 375 430 77 83 174 191 215 241 98 117 189
220 335 379 66 72 174 191 240 265 152 170 417 449 578 609 l125 123 21 -56
c85 -228 295 -525 499 -707 186 -167 406 -271 712 -336 121 -26 136 -27 445
-28 l320 0 152 33 c84 18 199 48 255 66 218 71 505 204 723 336 158 96 193
120 300 210 198 166 304 294 456 546 158 263 206 370 288 639 48 160 54 215
49 490 -6 287 -13 325 -106 560 -109 275 -308 543 -499 673 -135 92 -332 177
-548 236 -162 44 -468 96 -572 96 l-78 1 166 162 c184 179 355 361 529 563 63
73 196 224 294 335 l179 202 18 -24 c144 -198 397 -474 548 -600 211 -174 476
-330 706 -415 228 -83 402 -110 678 -102 151 5 186 9 289 36 202 54 406 143
563 247 295 195 616 635 774 1060 70 189 166 568 200 790 34 225 36 268 35
720 0 450 -7 594 -39 855 -23 186 -45 375 -61 535 -8 83 -25 227 -39 320 -13
94 -26 195 -30 225 -4 30 -24 152 -46 270 -21 118 -45 259 -54 313 -9 53 -29
153 -45 221 -17 69 -39 173 -51 233 -25 133 -112 442 -185 663 -31 91 -75 239
-99 330 -24 91 -67 238 -94 328 -65 207 -69 241 -41 362 12 52 26 122 31 155
5 33 18 103 29 155 11 52 26 134 34 182 8 48 19 111 24 140 6 29 20 114 32
188 12 74 32 194 45 265 13 72 28 164 34 205 6 41 18 124 27 183 8 59 19 154
24 210 13 153 28 240 106 607 19 94 52 297 70 430 8 63 19 138 24 165 12 57
19 117 59 480 16 143 34 323 40 400 6 77 16 203 22 280 6 77 14 158 19 180 9
40 27 220 55 530 8 88 19 210 24 270 5 61 15 178 21 260 6 83 16 193 21 245
10 100 23 306 38 607 5 101 12 187 15 192 8 12 24 373 32 711 3 157 8 289 11
294 3 4 8 261 10 570 4 533 -2 797 -27 1066 -5 58 -14 170 -20 250 -20 279
-64 519 -144 780 -13 41 -34 111 -47 155 -106 365 -333 627 -557 643 -129 9
-280 -33 -422 -118 -81 -48 -210 -171 -283 -271 -75 -101 -203 -315 -249 -414
-20 -44 -82 -177 -137 -295 -143 -308 -123 -259 -276 -690 -39 -111 -78 -246
-110 -380 -12 -52 -48 -194 -78 -315 -31 -121 -63 -249 -71 -285 -8 -36 -26
-114 -40 -175 -45 -197 -55 -247 -91 -475 -20 -124 -46 -292 -60 -375 -13 -82
-29 -190 -35 -240 -6 -49 -19 -137 -30 -195 -10 -58 -24 -139 -30 -180 -7 -41
-25 -147 -41 -235 -16 -88 -36 -200 -45 -250 -8 -49 -22 -121 -29 -160 -8 -38
-19 -106 -24 -150 -10 -77 -32 -204 -84 -495 -30 -165 -54 -331 -67 -470 -6
-58 -15 -143 -20 -190 -5 -47 -10 -92 -10 -100 0 -8 -14 10 -31 40 -148 262
-402 672 -527 851 -163 233 -341 476 -397 542 -34 40 -92 115 -130 167 -38 52
-103 138 -145 190 -42 52 -101 129 -132 171 -31 43 -75 92 -97 109 -22 18 -51
49 -65 70 -13 20 -80 96 -148 168 -184 195 -393 422 -424 462 -15 19 -73 82
-128 140 -56 58 -190 202 -298 320 -280 305 -393 426 -544 580 -135 138 -183
181 -484 433 -41 34 -126 109 -190 167 -63 58 -133 119 -155 135 -22 16 -86
66 -142 110 -150 118 -225 176 -348 266 -60 45 -147 114 -192 155 -44 41 -151
120 -237 177 -415 272 -508 329 -796 482 -236 126 -247 131 -335 174 -44 21
-174 85 -290 143 -240 120 -473 222 -690 301 -172 63 -644 217 -663 217 -7 0
27 -53 76 -117z m-8103 -992 c-11 -10 -284 -65 -291 -58 -2 2 49 16 114 30
182 41 192 43 177 28z m52 -157 c-3 -3 -12 -4 -19 -1 -8 3 -5 6 6 6 11 1 17
-2 13 -5z m-44 -11 c-7 -2 -19 -2 -25 0 -7 3 -2 5 12 5 14 0 19 -2 13 -5z
m-50 -10 c-7 -2 -19 -2 -25 0 -7 3 -2 5 12 5 14 0 19 -2 13 -5z m-50 -10 c-7
-2 -19 -2 -25 0 -7 3 -2 5 12 5 14 0 19 -2 13 -5z m16659 -1895 c-6 -6 -7 0
-4 19 5 21 7 23 10 9 2 -10 0 -22 -6 -28z m-3611 -430 c46 -51 71 -82 55 -68
-34 30 -150 160 -143 160 3 0 42 -42 88 -92z m124 -138 c10 -11 16 -20 13 -20
-3 0 -13 9 -23 20 -10 11 -16 20 -13 20 3 0 13 -9 23 -20z m75 -75 c19 -19 32
-35 29 -35 -3 0 -20 16 -39 35 -19 19 -32 35 -29 35 3 0 20 -16 39 -35z m106
-117 l29 -33 -32 29 c-31 28 -38 36 -30 36 2 0 16 -15 33 -32z m-9800 -3103
c208 -28 449 -64 564 -85 124 -22 407 -64 505 -75 66 -7 448 -72 645 -110 289
-55 389 -75 402 -80 7 -3 56 -11 108 -19 125 -18 415 -77 593 -120 78 -19 191
-44 251 -56 170 -33 605 -142 887 -223 47 -14 139 -45 205 -70 65 -25 209 -77
319 -115 110 -39 283 -100 385 -135 102 -36 215 -77 250 -91 36 -14 130 -50
210 -80 145 -54 493 -195 690 -278 124 -53 981 -486 1093 -552 43 -25 105 -60
138 -77 49 -24 259 -212 1053 -941 545 -501 1003 -922 1017 -935 l25 -23 158
172 c87 95 161 172 163 171 68 -22 1062 -997 1165 -1142 l60 -84 -87 -336
c-98 -379 -207 -821 -235 -956 -10 -49 -42 -180 -70 -290 -96 -372 -183 -735
-200 -835 -11 -66 -52 -253 -114 -520 -42 -179 -136 -602 -171 -770 -30 -146
-53 -245 -71 -315 -12 -48 -31 -135 -72 -335 -26 -128 -96 -445 -132 -605 -17
-71 -46 -204 -66 -295 -81 -376 -213 -932 -289 -1220 -22 -83 -125 -530 -125
-543 0 -3 19 1 43 8 23 7 67 15 97 19 30 4 107 13 170 21 277 35 321 37 535
33 237 -6 346 -20 580 -79 207 -52 372 -154 571 -353 105 -106 113 -117 171
-236 76 -158 105 -238 132 -369 25 -123 26 -190 6 -371 -29 -257 -86 -426
-227 -659 -166 -277 -317 -445 -563 -628 -245 -182 -395 -263 -633 -342 -250
-83 -272 -86 -617 -85 -271 0 -310 2 -403 22 -243 53 -447 168 -643 362 -158
157 -283 331 -364 503 -80 173 -144 392 -152 527 -3 47 -9 91 -12 98 -8 15
-550 -544 -847 -873 -104 -115 -230 -252 -279 -305 -50 -52 -132 -144 -184
-205 -52 -60 -180 -199 -286 -307 -174 -178 -523 -559 -665 -728 -108 -128
-276 -317 -365 -410 -50 -52 -127 -140 -172 -195 -45 -55 -194 -215 -331 -355
l-249 -255 -269 2 c-149 0 -346 6 -439 13 -630 42 -1432 182 -1935 336 -373
115 -1005 336 -1265 443 -27 11 -104 43 -170 70 -245 101 -733 351 -985 505
-145 89 -358 231 -501 335 -42 31 -145 106 -229 166 -399 288 -606 474 -864
775 -82 96 -184 213 -225 260 -97 108 -264 315 -366 450 -43 58 -116 149 -162
204 -176 206 -424 549 -647 893 -238 366 -505 790 -578 918 -83 145 -373 728
-417 840 -153 384 -303 853 -380 1190 -23 99 -56 238 -72 310 -17 71 -37 181
-45 244 -7 62 -27 182 -43 265 -17 83 -35 210 -40 281 -6 72 -16 193 -23 270
-8 94 -13 334 -13 725 0 605 7 743 65 1275 31 291 192 966 281 1180 23 55 58
147 79 205 21 58 51 139 68 180 16 41 53 145 82 230 29 85 72 200 95 255 23
55 46 111 50 125 10 36 363 717 460 890 111 197 142 252 188 340 112 209 232
372 571 769 224 264 302 348 546 591 294 293 547 510 884 757 94 70 205 152
246 183 41 31 86 63 100 70 52 26 261 158 430 270 188 124 337 219 453 287
l72 43 161 0 c88 0 209 -7 270 -15z m9305 -3752 c13 -16 12 -17 -3 -4 -10 7
-18 15 -18 17 0 8 8 3 21 -13z m-15393 -7858 c34 -8 84 -26 110 -39 67 -34
145 -119 181 -196 29 -61 31 -72 31 -183 0 -167 -15 -287 -60 -477 -149 -631
-160 -699 -160 -988 0 -198 2 -226 25 -322 26 -104 60 -174 107 -217 48 -42
197 -122 285 -152 51 -18 191 -56 310 -86 120 -30 270 -69 333 -89 100 -30
255 -75 585 -171 191 -56 231 -69 421 -136 264 -93 483 -164 569 -184 124 -29
350 -94 435 -124 45 -17 148 -49 229 -71 186 -53 574 -172 583 -179 6 -6 -32
-148 -167 -625 -19 -65 -35 -120 -38 -122 -6 -7 -480 118 -682 180 -253 78
-739 237 -950 311 -373 130 -525 180 -1155 374 -124 38 -301 92 -395 120 -149
46 -254 82 -513 177 l-63 23 -50 -77 c-119 -183 -227 -452 -269 -667 -18 -91
-39 -287 -45 -425 -4 -71 -22 -257 -30 -306 -12 -68 -47 -188 -66 -226 -52
-102 -135 -146 -255 -135 -76 7 -106 22 -161 79 -92 95 -123 219 -105 422 15
179 53 305 169 561 191 423 208 474 201 617 -3 71 -6 81 -44 135 -24 34 -61
71 -89 88 -43 27 -57 30 -124 30 -92 0 -140 -20 -246 -99 -90 -68 -249 -236
-352 -370 -142 -187 -331 -411 -380 -452 -75 -63 -131 -98 -222 -139 l-84 -38
-126 5 c-140 5 -176 16 -234 73 -19 19 -48 60 -64 92 -26 54 -28 68 -31 200
-3 141 -3 143 32 245 20 56 53 127 73 158 61 89 200 222 300 287 129 83 266
145 588 263 186 69 369 158 427 209 63 56 82 107 76 210 -6 108 -40 177 -116
237 -96 74 -141 84 -392 84 -217 0 -447 -13 -530 -31 -25 -5 -155 -12 -290
-15 -307 -8 -436 7 -513 59 -63 43 -133 133 -169 219 -27 63 -30 80 -26 152 6
136 54 204 203 286 39 21 105 48 148 60 73 20 95 21 335 17 541 -10 630 -23
1052 -151 381 -115 553 -184 888 -353 56 -28 102 -50 102 -49 0 11 -73 312
-80 331 -13 33 -46 236 -59 357 -25 227 -6 692 35 849 7 31 14 69 14 83 0 15
13 62 30 104 35 92 73 133 163 178 54 27 73 32 147 33 47 0 113 -6 148 -14z
m19179 -2831 c40 -24 54 -42 85 -104 63 -126 72 -178 72 -410 1 -220 -7 -275
-58 -386 -39 -85 -190 -312 -292 -439 -134 -167 -250 -344 -270 -412 -23 -78
-16 -223 13 -278 27 -51 107 -132 155 -156 110 -56 385 -88 838 -99 332 -7
351 -9 510 -40 189 -37 649 -180 770 -239 112 -55 276 -167 345 -235 85 -86
145 -203 145 -283 -1 -103 -56 -187 -156 -238 -71 -36 -172 -43 -375 -26 -237
20 -323 53 -847 329 -106 56 -194 102 -196 102 -11 0 -339 179 -386 210 -70
48 -250 130 -358 164 -110 34 -271 37 -332 6 -98 -50 -143 -115 -162 -234 -15
-96 5 -181 64 -280 40 -68 82 -116 333 -376 66 -69 174 -191 240 -273 66 -81
151 -184 188 -230 126 -152 276 -394 297 -480 5 -18 15 -50 24 -73 32 -88 51
-209 51 -334 0 -137 -12 -180 -70 -248 -61 -73 -136 -87 -265 -51 -205 57
-313 144 -417 339 -33 63 -74 153 -91 200 -50 144 -274 675 -339 805 -103 205
-208 361 -291 429 -98 81 -134 96 -228 96 -101 0 -153 -18 -213 -72 -108 -98
-137 -179 -151 -418 -5 -91 -14 -243 -20 -339 -16 -271 -37 -383 -113 -590
-60 -164 -129 -236 -291 -301 -142 -56 -306 -34 -365 48 -36 51 -61 139 -61
212 0 105 110 451 209 654 28 58 51 108 51 110 0 3 34 76 75 161 189 391 198
577 38 755 -86 96 -203 131 -493 150 -159 11 -653 14 -695 5 -11 -3 -287 -9
-614 -15 -327 -6 -669 -14 -760 -20 -91 -5 -332 -11 -534 -13 l-369 -4 4 33
c3 26 0 34 -15 38 -18 4 -19 12 -12 113 11 168 44 586 47 588 2 1 215 12 473
24 411 19 588 22 1403 21 513 0 938 2 944 6 6 4 216 10 467 14 495 8 543 13
650 67 97 49 217 179 358 388 86 128 191 365 268 610 118 372 216 639 277 755
76 143 129 222 169 251 80 57 196 62 276 13z m-7285 -2216 c-12 -12 -35 -1
-27 12 3 5 13 6 21 3 10 -4 12 -9 6 -15z m-5282 -1028 c0 -11 -7 -20 -15 -20
-13 0 -13 3 -3 20 7 11 14 20 15 20 2 0 3 -9 3 -20z"/>
<path d="M12435 27685 c-729 -80 -1426 -425 -1951 -967 -238 -245 -411 -490
-560 -793 -147 -300 -228 -554 -275 -865 -29 -192 -32 -526 -5 -705 77 -525
305 -986 666 -1345 367 -365 815 -587 1381 -684 l36 -6 6 -98 c8 -131 32 -259
67 -365 17 -48 30 -90 30 -93 0 -7 -208 103 -425 224 -93 52 -273 151 -400
219 -126 69 -327 178 -445 243 -118 64 -300 161 -405 215 -234 120 -452 240
-566 311 -47 30 -89 54 -92 54 -16 0 182 -508 255 -654 74 -148 289 -531 376
-670 148 -237 418 -578 640 -808 333 -347 479 -484 723 -675 368 -288 697
-511 969 -656 157 -83 141 -55 150 -263 13 -276 67 -594 146 -864 122 -416
213 -628 449 -1050 191 -341 232 -410 330 -551 109 -159 180 -244 330 -397
266 -273 516 -445 992 -681 l91 -46 -104 -130 c-57 -71 -136 -170 -176 -220
-40 -49 -100 -126 -133 -170 -33 -44 -105 -134 -160 -199 -55 -65 -129 -156
-165 -201 -36 -45 -87 -110 -115 -144 -27 -34 -107 -134 -176 -221 -70 -87
-139 -171 -153 -187 -15 -15 -86 -101 -158 -190 -72 -90 -134 -163 -138 -163
-24 0 -442 409 -525 515 -22 27 -64 77 -94 110 -90 100 -248 311 -353 469 -54
82 -98 146 -98 143 0 -3 12 -42 26 -87 47 -150 112 -288 190 -407 86 -130 290
-403 395 -529 138 -165 416 -404 664 -570 55 -36 118 -79 140 -93 129 -87 406
-210 640 -285 406 -129 353 -115 655 -168 157 -27 202 -31 447 -35 168 -3 315
-1 389 6 200 20 518 84 904 184 246 64 510 177 931 403 123 65 489 293 614
382 548 389 1003 823 1346 1283 181 243 478 680 488 719 2 8 11 26 21 40 43
62 328 601 364 690 10 25 75 160 143 300 69 140 178 379 243 530 65 151 139
322 165 380 26 58 85 213 131 345 46 132 97 278 114 325 73 198 123 369 170
585 28 127 59 268 70 315 11 47 36 164 54 260 19 96 49 233 65 303 28 114 68
342 86 482 4 28 22 133 40 235 18 102 41 248 49 324 9 77 23 183 31 235 8 53
26 195 40 315 15 121 28 223 30 226 5 7 24 162 60 485 31 272 32 277 45 515 6
102 15 246 20 320 15 216 10 471 -9 470 -12 -1 -198 -468 -286 -720 -41 -119
-146 -374 -207 -505 -180 -386 -173 -372 -448 -840 -238 -405 -381 -615 -568
-834 -59 -69 -123 -146 -143 -171 -60 -75 -277 -287 -388 -379 -58 -47 -146
-120 -195 -161 -179 -148 -357 -283 -481 -366 -209 -140 -517 -300 -749 -390
-78 -30 -156 -61 -174 -69 -18 -8 -37 -15 -43 -15 -5 0 -58 -18 -117 -39 -254
-93 -630 -180 -1083 -251 -395 -61 -689 -80 -1234 -80 -583 0 -739 10 -1158
75 -87 13 -496 104 -632 140 -239 63 -642 196 -852 281 -129 52 -456 214 -513
253 -14 10 -79 46 -145 81 -66 34 -145 78 -175 97 -30 19 -100 62 -155 95
-205 124 -451 303 -605 439 -52 47 -160 137 -240 202 -207 168 -366 316 -556
517 -404 428 -592 673 -823 1077 -99 172 -271 496 -266 501 5 5 70 -29 214
-113 405 -234 535 -309 706 -405 359 -203 421 -238 488 -279 37 -23 170 -98
295 -167 125 -70 254 -142 287 -162 55 -33 570 -292 581 -292 3 0 -26 37 -64
83 -73 86 -206 267 -259 352 -58 92 -163 319 -187 405 -32 112 -50 272 -43
390 10 175 73 316 186 412 139 119 412 185 592 144 67 -16 186 -62 199 -77 3
-3 19 -13 36 -22 69 -35 196 -140 259 -214 84 -98 145 -200 194 -328 38 -99
46 -128 97 -360 14 -66 30 -138 35 -160 5 -22 13 -61 18 -88 4 -26 11 -50 14
-54 14 -13 57 29 68 67 23 78 -20 360 -86 555 -30 90 -110 280 -130 309 -8 11
-15 25 -15 31 0 6 39 30 88 54 294 145 578 349 828 593 l133 130 -25 -89 c-13
-48 -36 -153 -51 -233 -25 -134 -27 -166 -27 -420 -1 -246 2 -289 23 -405 89
-496 311 -924 661 -1276 302 -304 654 -517 1095 -664 1142 -381 2517 -107
3530 702 130 104 376 341 484 468 331 387 564 827 675 1275 52 212 67 320 73
552 9 316 -22 539 -111 811 -323 986 -1257 1658 -2444 1758 -179 15 -603 6
-762 -15 -478 -66 -870 -187 -1295 -400 -406 -205 -725 -435 -1032 -748 -62
-63 -113 -112 -113 -109 0 4 11 49 24 101 102 404 105 859 6 1250 -124 492
-412 939 -807 1253 -324 257 -745 437 -1188 506 -211 33 -519 40 -740 16z
m570 -199 c302 -28 596 -111 857 -242 660 -331 1091 -960 1169 -1703 14 -139
6 -468 -14 -596 -48 -290 -128 -538 -254 -790 -289 -579 -763 -1049 -1358
-1348 l-110 -55 -59 65 c-93 102 -189 165 -361 236 -105 44 -144 51 -275 50
-188 -2 -307 -33 -466 -121 -136 -75 -311 -275 -359 -410 -19 -52 -19 -52 -55
-46 -276 47 -473 109 -696 219 -662 326 -1099 950 -1184 1690 -13 114 -13 393
0 510 31 284 129 614 260 880 153 308 303 518 555 771 93 94 208 201 255 238
255 203 622 406 912 505 405 138 775 184 1183 147z m5325 -1856 c707 -61 1327
-338 1760 -786 119 -124 170 -187 263 -329 160 -246 272 -534 322 -835 23
-132 31 -430 16 -571 -104 -986 -806 -1911 -1836 -2418 -433 -214 -874 -339
-1348 -382 -186 -17 -604 -6 -772 19 -627 97 -1131 334 -1523 717 -270 262
-442 535 -556 880 -132 397 -141 860 -25 1294 216 812 843 1551 1684 1987 447
232 909 372 1380 419 160 16 480 18 635 5z m-5295 -6357 c88 -41 194 -88 235
-103 41 -15 131 -55 200 -88 135 -65 432 -179 570 -218 47 -13 135 -35 195
-48 61 -13 182 -42 270 -64 298 -74 726 -138 986 -147 l206 -7 7 -607 c14
-1346 19 -2291 11 -2291 -21 0 -309 53 -380 70 -154 36 -322 102 -540 210
-237 117 -428 236 -590 367 -119 96 -358 339 -436 443 -90 120 -203 289 -244
365 -21 39 -46 81 -55 95 -9 14 -36 61 -60 105 -24 44 -72 130 -106 191 -167
295 -291 587 -369 865 -15 52 -33 113 -41 137 -19 58 -48 196 -78 372 -23 131
-33 215 -53 424 l-6 69 59 -32 c32 -18 131 -66 219 -108z m6005 -159 c0 -41
-4 -105 -9 -142 -6 -37 -17 -146 -26 -242 -18 -197 -55 -436 -91 -585 -46
-195 -195 -617 -240 -684 -13 -19 -24 -39 -24 -43 0 -10 -118 -224 -145 -263
-197 -289 -338 -458 -557 -670 -344 -333 -637 -513 -1066 -654 -215 -71 -388
-108 -658 -142 -88 -10 -319 -9 -328 2 -4 6 -25 2903 -21 2907 2 3 165 6 362
8 316 4 416 9 723 39 282 28 1103 175 1280 230 201 62 416 146 690 270 52 24
98 44 103 44 4 1 7 -33 7 -75z m-1416 -4316 c-3 -4 4 -8 15 -8 27 0 29 0 81
-16 54 -16 90 -18 90 -4 0 13 50 2 71 -16 20 -18 63 -19 54 -1 -4 6 -1 5 7 -3
7 -9 24 -16 38 -16 82 -3 140 -10 140 -16 0 -3 26 -10 58 -14 31 -3 65 -11 76
-16 10 -6 45 -10 77 -11 46 -1 59 -4 60 -16 0 -11 2 -12 6 -3 2 6 9 12 14 12
6 0 8 -4 5 -9 -6 -9 77 -22 169 -28 112 -7 131 -9 142 -16 8 -5 11 -3 8 5 -4
10 10 12 64 10 51 -3 76 1 93 12 14 9 35 15 49 14 13 -1 34 2 46 6 51 17 24
-19 -94 -125 -301 -269 -639 -517 -1013 -744 -132 -80 -483 -265 -525 -276
-21 -6 -98 -38 -173 -70 -128 -58 -330 -127 -637 -219 -239 -72 -345 -93 -565
-110 -188 -14 -273 -13 -267 3 2 6 12 12 23 12 10 0 19 5 19 12 0 12 13 28 23
28 13 0 52 32 46 37 -3 3 0 9 7 14 8 5 10 3 4 -6 -5 -8 -3 -11 6 -8 8 3 13 10
12 16 -2 6 3 9 11 6 7 -3 19 2 26 11 11 13 10 14 -6 9 -19 -7 -19 -7 0 14 10
12 22 19 26 17 4 -3 11 7 14 20 4 14 11 23 16 20 5 -3 11 -1 15 5 3 5 1 10 -5
10 -6 0 4 16 21 35 18 19 36 32 40 29 9 -5 13 9 10 33 -1 6 8 14 19 18 11 4
18 11 15 16 -4 5 -2 9 3 9 11 0 51 76 57 109 2 13 7 26 11 30 4 3 4 -3 0 -14
-5 -13 -4 -16 2 -10 6 6 12 19 14 30 2 11 13 24 26 30 20 9 26 22 23 51 -1 6
6 17 14 24 8 7 15 9 15 4 1 -19 29 42 30 64 0 12 4 22 10 22 5 0 16 12 24 28
8 15 26 41 40 57 14 17 26 35 26 42 0 7 8 28 17 48 12 24 19 31 25 23 6 -10 8
-8 8 4 0 9 12 30 26 47 14 17 22 31 18 31 -5 0 2 8 15 17 23 15 23 17 6 23
-17 6 -13 11 25 35 25 16 46 29 47 30 1 0 4 13 7 29 6 33 17 46 23 28 6 -17
32 15 33 41 0 9 5 17 11 17 5 0 8 4 5 9 -3 5 1 12 10 15 10 4 13 2 8 -7 -3 -6
9 4 28 23 19 19 33 38 31 43 -2 4 5 7 16 7 11 0 23 5 26 10 4 6 10 8 15 5 4
-3 7 6 6 19 -2 14 0 25 3 24 6 -1 24 5 69 23 13 5 21 13 17 18 -3 5 -1 12 5
16 6 4 7 11 4 17 -4 6 -2 8 4 4 10 -6 67 41 67 56 0 3 4 10 9 15 5 5 6 3 2 -5
-6 -9 -1 -11 18 -8 34 6 46 14 46 32 0 8 4 13 10 9 9 -6 41 9 73 34 12 10 17
11 17 2 0 -7 5 -9 10 -6 6 4 7 11 4 17 -5 7 2 9 18 5 18 -5 28 -2 32 8 3 8 16
15 30 15 14 0 28 5 31 10 3 6 1 10 -4 10 -6 0 -11 3 -11 8 0 4 11 7 25 7 14 0
25 -3 25 -6 0 -3 20 -2 45 4 24 6 42 14 39 18 -2 4 0 10 6 14 5 3 10 -1 10
-10 0 -12 5 -15 16 -11 9 3 20 6 25 6 6 0 7 5 4 10 -4 7 7 10 32 10 34 -2 145
9 150 14 7 6 41 0 37 -6z m126 -8 c0 -5 -7 -10 -16 -10 -8 0 -12 5 -9 10 3 6
10 10 16 10 5 0 9 -4 9 -10z"/>
<path d="M13025 25524 c-359 -55 -618 -177 -841 -399 -224 -222 -335 -470
-335 -751 0 -245 83 -456 249 -634 168 -181 396 -304 660 -357 133 -26 395
-24 532 6 301 64 549 198 746 403 368 384 416 898 119 1293 -154 204 -392 349
-685 416 -83 20 -370 34 -445 23z"/>
<path d="M18270 23629 c-534 -37 -1037 -385 -1242 -860 -211 -491 -65 -1020
359 -1296 659 -430 1641 -131 2011 612 90 180 128 360 119 559 -11 258 -107
476 -288 657 -240 240 -575 355 -959 328z"/>
<path d="M27226 16789 c-223 -33 -410 -129 -571 -293 -108 -110 -174 -217
-221 -353 -45 -132 -58 -223 -51 -368 18 -408 297 -760 696 -880 279 -83 593
-36 832 126 510 343 580 1053 148 1487 -218 218 -533 325 -833 281z m-379
-1319 c45 -62 56 -80 49 -80 -3 0 -25 28 -49 63 -76 107 -76 119 0 17z"/>
</g>
</svg>
